<svg xmlns="http://www.w3.org/2000/svg" viewBox="0 0 128 128" fill="none">
  <rect width="128" height="128" rx="34" fill="url(#bg)" />
  <rect x="10" y="10" width="108" height="108" rx="28" stroke="rgba(150,110,98,0.16)" stroke-width="2" />
  <path d="M64.097 86C62.521 86 60.945 85.452 59.676 84.355C43.687 70.532 33 60.816 33 47.502C33 37.424 40.817 30 50.507 30C56.105 30 61.498 32.686 64.915 36.876C68.332 32.686 73.725 30 79.323 30C89.013 30 96.83 37.424 96.83 47.502C96.83 60.816 86.143 70.532 70.154 84.355C68.885 85.452 67.309 86 65.733 86H64.097Z" fill="url(#heart)" />
  <circle cx="92.5" cy="34.5" r="4.5" fill="#E7C3C2" />
  <circle cx="100" cy="45" r="2.5" fill="#E7C3C2" />
  <defs>
    <linearGradient id="bg" x1="16" y1="10" x2="112" y2="118" gradientUnits="userSpaceOnUse">
      <stop stop-color="#FFFDFC" />
      <stop offset="1" stop-color="#F3E6DD" />
    </linearGradient>
    <linearGradient id="heart" x1="46" y1="34" x2="84" y2="86" gradientUnits="userSpaceOnUse">
      <stop stop-color="#D8A29C" />
      <stop offset="1" stop-color="#C78681" />
    </linearGradient>
  </defs>
</svg>
