<svg xmlns="http://www.w3.org/2000/svg" width="1200" height="900" viewBox="0 0 1200 900" fill="none">
  <rect width="1200" height="900" rx="48" fill="#FAF5F0"/>
  <rect x="88" y="88" width="1024" height="724" rx="40" fill="#FFFDFC"/>
  <path d="M330 274C330 224.294 370.294 184 420 184H780C829.706 184 870 224.294 870 274V518H330V274Z" fill="#F1DED5"/>
  <path d="M330 518H870V626C870 675.706 829.706 716 780 716H420C370.294 716 330 675.706 330 626V518Z" fill="#EBD8CE"/>
  <path d="M444 334C444 293.131 477.131 260 518 260C556.74 260 588.528 289.745 591.77 327.655C595.012 289.745 626.8 260 665.54 260C706.409 260 739.54 293.131 739.54 334C739.54 380.814 695.331 420.886 626.991 476.097C617.414 483.835 603.146 483.854 593.547 476.14C487.619 391.031 444 369.306 444 334Z" fill="#D29B95"/>
  <text x="600" y="772" fill="#7D6056" font-family="Noto Sans SC, PingFang SC, sans-serif" font-size="42" text-anchor="middle">纪念日、旅行照、卡片，都可以放在这里</text>
</svg>
